<svg xmlns="http://www.w3.org/2000/svg" viewBox="0 0 154.38 195.33" fill="#63d1bb"><g data-name="Слой 2"><path class="cls-1" d="M78 .59L77.19.5.5 8.54v140.57l76.69 45.63 76.69-45.63V8.54zm65.86 142.82l-66.67 39.66-66.66-39.66V85.79l66.38 39.51.11 7.16-45.53-27.1-.07 7 45.71 27.47.11 7.35-45.7-27.19-.07 7 45.71 27.47 46.15-27.62v-7h-.06V97.1l20.57-12.28zm-.05-66.06l-18.25 10.74-8.42 5L77 69.17l-.07 7 34.32 20.41-.3.18-.74.44-4.88 2.8L77 83.16l-.07 7 22.36 13.3-5.29 3.48-.13.08L77 97.06l-.07 7L88 110.54l-11.29 6.78-66-39.26 66.11-39.75zm.05-7l-67-39.51-66.33 39.47V17.58l66.66-7 66.66 7z" data-name="Layer 1"/></g></svg>